<?xml version="1.0" encoding="utf-8"?>
<svg xmlns="http://www.w3.org/2000/svg" viewBox="0 0 100 100" width="64" height="64">
  <path fill="#ceccbe" d="M81,78V34c0-1.105-0.895-2-2-2H51c-1.105,0-2-0.895-2-2v-2c0-3.314-2.686-6-6-6H16 c-3.314,0-6,2.686-6,6v50H81z" />
  <path fill="#fefdef" d="M10.117,77.633L20,39h71L80.673,79.367C80.277,80.916,78.882,82,77.283,82H13.508 C11.223,82,9.551,79.846,10.117,77.633z" />
  <path fill="#1f212b" d="M10,79c-0.552,0-1-0.448-1-1V28c0-3.86,3.14-7,7-7h27c3.86,0,7,3.14,7,7v2c0,0.551,0.449,1,1,1h28 c1.654,0,3,1.346,3,3v5c0,0.552-0.448,1-1,1s-1-0.448-1-1v-5c0-0.551-0.449-1-1-1H51c-1.654,0-3-1.346-3-3v-2c0-2.757-2.243-5-5-5 H16c-2.757,0-5,2.243-5,5v50C11,78.552,10.552,79,10,79z" />
  <path fill="#1f212b" d="M77.283,83H13.508c-1.4,0-2.696-0.634-3.555-1.741c-0.858-1.106-1.152-2.518-0.805-3.875 l9.883-38.633C19.145,38.31,19.543,38,20,38h71c0.309,0,0.601,0.143,0.79,0.387s0.255,0.562,0.179,0.861L81.642,79.615 C81.133,81.608,79.34,83,77.283,83z M20.776,40l-9.69,37.881l0,0c-0.193,0.753-0.03,1.538,0.447,2.152 C12.01,80.647,12.73,81,13.508,81h63.775c1.143,0,2.139-0.773,2.422-1.88L89.712,40H20.776z M10.117,77.633h0.01H10.117z" />
  <path fill="#1f212b" d="M31.5,29h-17c-0.276,0-0.5-0.224-0.5-0.5s0.224-0.5,0.5-0.5h17c0.276,0,0.5,0.224,0.5,0.5 S31.776,29,31.5,29z" />
  <g>
    <circle cx="46.5" cy="56.5" r="11" fill="#a3a3cd" />
    <circle cx="46.5" cy="56.5" r="8" fill="#78cdd4" />
    <path fill="#fcba7f" d="M63.5,75.5c-0.512,0-1.024-0.195-1.414-0.586l-5-5c-0.781-0.781-0.781-2.047,0-2.828 c0.78-0.781,2.048-0.781,2.828,0l5,5c0.781,0.781,0.781,2.047,0,2.828C64.524,75.305,64.012,75.5,63.5,75.5z" />
    <path fill="#1f212b" d="M46.5,68C40.159,68,35,62.841,35,56.5S40.159,45,46.5,45S58,50.159,58,56.5S52.841,68,46.5,68z M46.5,46C40.71,46,36,50.71,36,56.5S40.71,67,46.5,67S57,62.29,57,56.5S52.29,46,46.5,46z" />
    <path fill="#1f212b" d="M46.5,65c-4.687,0-8.5-3.813-8.5-8.5s3.813-8.5,8.5-8.5s8.5,3.813,8.5,8.5S51.187,65,46.5,65z M46.5,49c-4.136,0-7.5,3.364-7.5,7.5s3.364,7.5,7.5,7.5s7.5-3.364,7.5-7.5S50.636,49,46.5,49z" />
    <rect width="1" height="3.536" x="55.249" y="63.982" fill="#1f212b" transform="rotate(-45.001 55.749 65.75)" />
    <path fill="#1f212b" d="M63.5,76c-0.668,0-1.296-0.26-1.768-0.732l-5-5c-0.975-0.975-0.975-2.561,0-3.535 c0.943-0.944,2.591-0.944,3.536,0l5,5c0.975,0.975,0.975,2.561,0,3.535C64.796,75.74,64.168,76,63.5,76z M58.5,67 c-0.401,0-0.777,0.156-1.06,0.439c-0.585,0.585-0.585,1.536,0,2.121l5,5c0.566,0.566,1.555,0.566,2.121,0 c0.585-0.585,0.585-1.536,0-2.121l-5-5C59.277,67.156,58.901,67,58.5,67z" />
    <rect width="4.243" height="1" x="56.878" y="68.5" fill="#1f212b" transform="rotate(-45.001 58.999 69)" />
  </g>
</svg>